<svg viewBox="0 0 48 32" xmlns="http://www.w3.org/2000/svg" xmlns:xlink="http://www.w3.org/1999/xlink"><defs><path d="M44 32H4a4 4 0 01-4-4V4a4 4 0 014-4h40a4 4 0 014 4v24a4 4 0 01-4 4" id="a"/><path d="M29.06 6.63l.35.14a1 1 0 01.55 1.3l-7.27 18h-2.56L27.76 7.2a1 1 0 011.3-.56z" id="c"/><path d="M13.32 6.13l.37.07c.54.1.9.63.79 1.17l-3.64 18.7H8.43l3.72-19.15a1 1 0 011.17-.79z" id="f"/><path d="M21.66 6.8l.34.14a1 1 0 01.55 1.3l-7.2 17.83h-2.56l7.56-18.71a1 1 0 011.3-.55z" id="i"/><linearGradient x1="0%" y1="27.49%" x2="121.94%" y2="27.49%" id="b"><stop stop-color="#E0D2AA" offset="0%"/><stop stop-color="#C9BD8D" offset="100%"/></linearGradient><linearGradient x1="0%" y1="27.49%" x2="121.94%" y2="27.49%" id="e"><stop stop-color="#E0D2AA" offset="0%"/><stop stop-color="#C9BD8D" offset="100%"/></linearGradient><linearGradient x1="0%" y1="27.49%" x2="121.94%" y2="27.49%" id="h"><stop stop-color="#E0D2AA" offset="0%"/><stop stop-color="#C9BD8D" offset="100%"/></linearGradient><filter x="-7.6%" y="-4.1%" width="115.8%" height="108%" filterUnits="objectBoundingBox" id="d"><feGaussianBlur stdDeviation=".5" in="SourceAlpha" result="shadowBlurInner1"/><feOffset dx="-.5" dy=".5" in="shadowBlurInner1" result="shadowOffsetInner1"/><feComposite in="shadowOffsetInner1" in2="SourceAlpha" operator="arithmetic" k2="-1" k3="1" result="shadowInnerInner1"/><feColorMatrix values="0 0 0 0 0.707880435 0 0 0 0 0.647570317 0 0 0 0 0.481717492 0 0 0 1 0" in="shadowInnerInner1"/></filter><filter x="-12.4%" y="-3.9%" width="125.4%" height="107.7%" filterUnits="objectBoundingBox" id="g"><feGaussianBlur stdDeviation=".5" in="SourceAlpha" result="shadowBlurInner1"/><feOffset dx="-.5" dy=".5" in="shadowBlurInner1" result="shadowOffsetInner1"/><feComposite in="shadowOffsetInner1" in2="SourceAlpha" operator="arithmetic" k2="-1" k3="1" result="shadowInnerInner1"/><feColorMatrix values="0 0 0 0 0.707880435 0 0 0 0 0.647570317 0 0 0 0 0.481717492 0 0 0 1 0" in="shadowInnerInner1"/></filter><filter x="-7.7%" y="-4.2%" width="115.9%" height="108.1%" filterUnits="objectBoundingBox" id="j"><feGaussianBlur stdDeviation=".5" in="SourceAlpha" result="shadowBlurInner1"/><feOffset dx="-.5" dy=".5" in="shadowBlurInner1" result="shadowOffsetInner1"/><feComposite in="shadowOffsetInner1" in2="SourceAlpha" operator="arithmetic" k2="-1" k3="1" result="shadowInnerInner1"/><feColorMatrix values="0 0 0 0 0.707880435 0 0 0 0 0.647570317 0 0 0 0 0.481717492 0 0 0 1 0" in="shadowInnerInner1"/></filter></defs><g fill="none" fill-rule="evenodd"><path d="M0 0h48v32H0z"/><use fill="#F6F4F9" xlink:href="#a"/><g transform="translate(8 3)"><use fill="url(#b)" xlink:href="#c"/><use fill="#000" filter="url(#d)" xlink:href="#c"/><use fill="url(#e)" xlink:href="#f"/><use fill="#000" filter="url(#g)" xlink:href="#f"/><use fill="url(#h)" xlink:href="#i"/><use fill="#000" filter="url(#j)" xlink:href="#i"/><path d="M2.55 5.01V.86h1.5V0H0v.86h1.5v4.15h1.05zm4.45 0l.93-3.37H8L8.94 5h.98l1.33-5h-1.08l-.78 3.58h-.05L8.4 0h-.89L6.6 3.58h-.06L5.77 0H4.68l1.33 5.01H7zm8.48 0v-.86H13.2V2.88h2.14v-.8H13.2V.85h2.27V0h-3.32v5.01h3.32zm2.1 0v-3.2h.06L19.96 5h.87V0h-1v3.2h-.06L17.46 0h-.88v5.01h1zm6.73 0V.86h1.5V0h-4.05v.86h1.5v4.15h1.05zm4.86 0V3.14L30.92 0h-1.14l-1.1 2.1h-.06L27.52 0h-1.14l1.75 3.14V5h1.04z" fill="#3E358A" fill-rule="nonzero"/><path d="M14.3 26.07v-3.93H7.17v-.25l2.49-2.04c3.23-2.65 4.42-4.48 4.42-6.46v-.06c0-3.21-2.7-5.28-6.86-5.28-4.32 0-7.16 2.38-7.16 6v.09h4.69v-.1c0-1.27.95-2.17 2.28-2.17 1.3 0 2.08.69 2.08 1.83v.06c0 .93-.7 1.79-3.38 4.16L.36 22.65v3.42H14.3z" fill="#3E3588" fill-rule="nonzero"/><rect stroke="#6C675F" stroke-width=".5" fill="#FF1744" x="16.94" y="8.3" width="13.04" height="13.04" rx="6"/><circle fill="#DAB290" cx="21.09" cy="11.26" r="1"/><circle fill="#DAB290" cx="19.91" cy="14.22" r="1.19"/></g></g></svg>